<?xml version="1.0" standalone="no"?>
<!DOCTYPE svg PUBLIC "-//W3C//DTD SVG 20010904//EN"
 "http://www.w3.org/TR/2001/REC-SVG-20010904/DTD/svg10.dtd">
<svg version="1.0" xmlns="http://www.w3.org/2000/svg"
 width="860.000000pt" height="392.000000pt" viewBox="0 0 860.000000 392.000000"
 preserveAspectRatio="xMidYMid meet">

<g transform="translate(0.000000,392.000000) scale(0.100000,-0.100000)"
fill="#000000" stroke="none">
<path d="M5952 3500 c-77 -18 -242 -89 -286 -122 -18 -14 -24 -13 -65 5 -64
28 -170 33 -251 12 -237 -61 -399 -251 -400 -466 l0 -57 -37 -7 c-105 -19
-184 -80 -218 -168 -25 -66 -18 -174 17 -250 33 -70 122 -162 201 -207 53 -30
57 -34 57 -68 0 -21 9 -52 20 -70 22 -35 93 -85 148 -103 l36 -12 -45 -22
c-105 -53 -339 -124 -559 -169 -407 -82 -1083 -118 -1853 -97 -232 6 -510 16
-617 21 -949 47 -1509 70 -1712 70 -54 0 -59 -2 -73 -30 -17 -32 -20 -70 -6
-70 40 0 344 -65 631 -135 190 -46 416 -97 502 -114 103 -20 204 -48 290 -80
156 -57 240 -77 363 -86 50 -3 151 -15 226 -25 74 -10 252 -30 395 -44 142
-14 302 -30 354 -36 208 -21 1250 -110 1297 -110 20 0 22 -3 16 -48 -9 -81 32
-135 128 -169 44 -16 48 -20 54 -60 19 -127 158 -213 344 -213 58 0 161 21
202 41 40 19 128 129 170 214 56 113 75 213 59 313 -19 122 -21 116 30 128 63
16 71 10 62 -40 -12 -69 -7 -178 12 -234 17 -51 75 -124 106 -134 12 -4 12
-12 2 -57 -27 -119 -5 -202 77 -282 87 -86 222 -125 345 -101 50 10 50 10 105
-36 115 -93 281 -148 429 -140 150 9 259 66 319 168 61 105 54 100 146 100
159 0 260 46 311 141 25 46 29 62 28 133 0 48 -9 112 -21 156 -29 108 -28 120
12 120 50 1 109 32 154 84 33 37 47 46 74 46 127 2 272 128 314 275 l15 51 69
17 c74 20 167 70 218 119 63 61 129 231 102 264 -5 6 -25 47 -43 90 l-35 78
43 46 c45 48 86 139 86 189 0 93 -72 182 -200 246 -57 29 -70 40 -65 53 51
122 11 242 -103 310 -42 24 -57 27 -137 27 l-90 1 -59 62 c-59 62 -59 62 -115
62 -112 0 -208 -42 -271 -118 l-28 -34 -48 18 c-74 28 -175 24 -249 -10 -33
-15 -73 -38 -91 -51 l-31 -24 -6 85 c-7 98 -29 154 -83 213 -71 80 -172 121
-295 121 l-66 0 -5 45 c-18 151 -190 226 -406 175z m268 -120 l45 -25 2 -65
c2 -36 5 -80 8 -97 5 -30 9 -33 39 -33 19 0 50 7 69 15 104 43 265 -23 317
-131 42 -86 15 -198 -73 -306 -26 -32 -47 -61 -47 -65 0 -5 33 -23 72 -42 100
-47 181 -128 203 -204 15 -52 15 -62 1 -111 -26 -90 -126 -196 -183 -196 -19
0 -43 -36 -43 -65 0 -22 62 -29 146 -16 41 6 113 11 159 11 316 0 596 133 620
294 7 46 -8 115 -29 128 -35 24 -126 -20 -126 -60 0 -20 29 -52 47 -52 14 0
16 9 13 53 -2 34 22 37 44 5 33 -47 5 -146 -52 -187 -75 -53 -182 -94 -315
-121 -51 -10 -377 -20 -377 -11 0 2 22 27 49 56 119 131 127 255 24 399 l-35
48 25 57 c14 31 29 68 32 83 10 39 86 114 125 121 78 16 182 -3 233 -43 l26
-20 73 73 c110 109 185 138 265 100 44 -20 49 -34 27 -71 -16 -28 -16 -31 2
-55 23 -32 22 -32 126 -7 100 24 130 25 169 4 60 -31 79 -156 37 -240 -21 -43
-21 -44 -2 -65 10 -12 62 -42 114 -68 137 -67 159 -105 123 -218 -13 -40 -25
-59 -54 -79 -40 -27 -69 -64 -69 -86 0 -7 18 -36 40 -65 55 -74 72 -109 72
-157 0 -121 -118 -224 -284 -248 -40 -6 -80 -17 -89 -25 -10 -8 -19 -36 -22
-69 -7 -66 -35 -128 -79 -174 -48 -48 -102 -70 -178 -70 l-66 0 -50 -63 c-43
-54 -54 -62 -87 -65 -51 -4 -80 17 -96 69 -32 107 -102 198 -169 220 -72 24
-262 -10 -262 -47 0 -20 50 -18 105 6 89 38 155 23 217 -50 56 -65 72 -144 41
-203 -22 -41 -19 -59 22 -132 61 -110 80 -230 47 -295 -39 -79 -169 -136 -252
-111 -84 25 -109 8 -175 -122 -24 -47 -43 -69 -77 -90 -85 -53 -211 -70 -330
-46 -92 19 -211 82 -261 140 l-44 50 -52 -17 c-107 -34 -280 3 -353 76 -45 45
-48 76 -19 191 19 72 26 117 23 151 -1 9 -28 32 -60 51 -31 20 -68 47 -81 61
-22 24 -24 31 -19 113 6 96 21 139 64 172 67 53 381 5 569 -85 163 -79 244
-174 244 -289 1 -113 -115 -219 -203 -185 -31 12 -33 36 -5 66 23 25 18 44
-11 44 -26 0 -60 -47 -60 -81 0 -64 75 -88 171 -54 103 37 143 93 143 202 -1
63 -6 82 -38 147 -55 113 -96 144 -264 199 -188 63 -272 78 -452 84 -170 6
-291 -6 -396 -38 l-65 -20 -33 20 c-42 26 -56 26 -56 1 0 -13 12 -27 31 -38
23 -13 41 -38 70 -100 44 -94 48 -137 24 -240 -50 -213 -210 -330 -413 -301
-132 19 -176 63 -178 178 -1 50 -6 76 -15 82 -8 5 -42 9 -76 9 -51 0 -64 3
-73 19 -17 34 -11 59 21 81 37 27 56 24 190 -30 54 -22 116 -42 136 -45 47 -7
101 18 123 57 14 26 13 29 -7 49 -19 19 -24 20 -38 9 -11 -9 -14 -22 -9 -43
l6 -30 -61 7 c-56 6 -65 11 -109 54 -71 71 -130 97 -222 95 -173 -4 -547 20
-775 48 -132 17 -350 37 -485 44 -135 8 -319 26 -410 39 -319 48 -566 84 -685
101 -150 20 -324 60 -575 132 -107 31 -262 73 -345 94 l-150 38 225 0 c124 1
349 -6 500 -14 151 -8 421 -22 600 -31 459 -25 1251 -25 1525 -1 494 43 838
115 1148 238 250 100 362 176 494 336 93 113 98 291 12 396 -83 101 -248 105
-301 6 -28 -52 -24 -124 8 -156 21 -21 32 -24 61 -20 20 4 41 11 47 17 17 17
-10 34 -49 32 -24 -2 -37 2 -41 13 -11 29 7 84 37 115 26 25 38 30 80 30 65 0
103 -20 134 -73 74 -127 37 -311 -81 -412 l-52 -45 -125 0 c-136 0 -204 14
-244 52 -21 20 -23 28 -17 75 6 51 5 55 -28 86 -20 18 -59 40 -93 51 -71 22
-118 66 -134 121 -6 22 -11 78 -11 124 0 81 1 84 33 116 37 37 122 61 181 49
l36 -6 0 78 c1 203 87 364 237 440 55 27 65 29 181 29 l123 0 32 -39 c19 -22
39 -37 49 -35 9 2 31 24 50 49 64 84 197 131 363 127 85 -2 107 -6 145 -27z
m540 -644 c0 -15 -18 -31 -26 -23 -7 7 7 37 17 37 5 0 9 -6 9 -14z m-5683
-1072 c-3 -3 -12 -4 -19 -1 -8 3 -5 6 6 6 11 1 17 -2 13 -5z"/>
<path d="M5850 3054 c1 -38 38 -103 69 -118 43 -23 58 -20 34 7 -11 12 -29 38
-41 58 -12 19 -30 44 -42 54 -19 18 -20 18 -20 -1z"/>
<path d="M5946 2589 c-27 -32 -40 -67 -34 -94 6 -28 22 -19 45 26 45 92 39
128 -11 68z"/>
<path d="M6321 2373 c-12 -10 -24 -35 -28 -57 -6 -37 -5 -38 16 -27 23 13 45
44 56 79 8 27 -13 30 -44 5z"/>
<path d="M7654 2186 c-11 -28 0 -61 21 -61 16 0 20 7 20 35 0 25 -5 36 -18 38
-9 2 -20 -3 -23 -12z"/>
<path d="M5982 2098 c2 -21 8 -33 18 -33 10 0 16 12 18 33 3 27 0 32 -18 32
-18 0 -21 -5 -18 -32z"/>
<path d="M5735 1994 c-20 -21 -16 -48 9 -52 22 -5 36 13 36 46 0 26 -22 29
-45 6z"/>
<path d="M6335 1900 c-10 -16 3 -26 48 -38 44 -12 87 -1 87 23 0 11 -11 15
-42 15 -24 0 -53 3 -64 6 -12 3 -25 0 -29 -6z"/>
<path d="M7490 1840 c-14 -11 -31 -20 -37 -20 -18 0 -16 -29 1 -36 27 -10 85
33 86 64 0 18 -21 14 -50 -8z"/>
<path d="M7673 1768 c-19 -25 -22 -46 -8 -65 13 -17 15 -15 30 20 15 36 13 57
-4 57 -5 0 -13 -6 -18 -12z"/>
<path d="M5653 1750 c-59 -26 -57 -44 5 -35 46 7 132 39 132 49 0 14 -99 4
-137 -14z"/>
<path d="M7167 1756 c-4 -10 -7 -35 -7 -57 0 -32 3 -39 20 -39 16 0 20 7 20
38 0 21 -6 46 -13 56 -13 18 -14 18 -20 2z"/>
<path d="M6998 1726 c-14 -31 -4 -56 22 -56 17 0 20 6 20 40 0 47 -23 55 -42
16z"/>
<path d="M5834 1656 c-18 -14 -18 -15 11 -26 23 -9 40 -9 70 0 37 11 38 13 20
26 -24 18 -76 18 -101 0z"/>
<path d="M4935 1545 c-88 -13 -218 -31 -289 -39 -124 -15 -195 -37 -204 -64
-2 -8 6 -8 28 -2 17 5 91 16 163 25 314 38 438 62 487 95 21 14 4 12 -185 -15z"/>
<path d="M6443 1533 c-7 -2 -13 -13 -13 -24 0 -21 33 -26 59 -10 12 8 12 12 2
25 -14 16 -26 19 -48 9z"/>
<path d="M3902 1523 c-15 -3 -22 -10 -20 -21 3 -14 15 -17 60 -17 53 0 90 16
75 31 -8 9 -86 13 -115 7z"/>
<path d="M2378 1489 c-30 -17 -20 -28 15 -18 20 6 52 5 86 -1 78 -14 144 -12
167 5 10 8 17 15 14 16 -29 7 -269 6 -282 -2z"/>
<path d="M6616 1455 c-21 -32 -20 -35 8 -35 33 0 53 25 36 45 -17 21 -25 19
-44 -10z"/>
<path d="M3096 1371 c-13 -21 29 -36 96 -34 50 2 105 -6 211 -32 171 -42 256
-51 315 -33 70 21 46 33 -68 34 -78 0 -132 7 -210 26 -166 41 -331 60 -344 39z"/>
<path d="M5892 950 c-33 -20 -34 -22 -27 -73 6 -51 30 -97 53 -105 22 -7 24
27 3 54 -28 36 -29 100 -1 107 11 3 20 12 20 21 0 21 -8 20 -48 -4z"/>
<path d="M6726 888 c-2 -7 -9 -35 -16 -62 -6 -27 -17 -61 -25 -77 -13 -24 -13
-28 1 -33 27 -10 80 104 72 156 -3 25 -26 36 -32 16z"/>
</g>
</svg>
