<?xml version="1.0" standalone="no"?>
<!DOCTYPE svg PUBLIC "-//W3C//DTD SVG 20010904//EN"
 "http://www.w3.org/TR/2001/REC-SVG-20010904/DTD/svg10.dtd">
<svg version="1.0" xmlns="http://www.w3.org/2000/svg"
 width="225.000000pt" height="225.000000pt" viewBox="0 0 225.000000 225.000000"
 preserveAspectRatio="xMidYMid meet">

<g transform="translate(0.000000,225.000000) scale(0.100000,-0.100000)"
fill="#000000" stroke="none">
<path d="M1195 1933 c-183 -43 -220 -57 -276 -103 -30 -25 -89 -72 -129 -105
-104 -84 -179 -163 -200 -210 -10 -22 -21 -71 -25 -110 -17 -183 -47 -390 -81
-553 -23 -107 3 -236 62 -308 33 -41 263 -204 346 -244 49 -24 147 -38 156
-23 4 6 32 18 62 26 30 9 80 23 110 31 30 9 93 19 140 22 129 9 354 50 400 74
71 36 73 50 50 337 -27 332 -57 567 -81 629 -6 16 -26 88 -45 159 -46 169 -61
203 -99 221 -16 7 -57 29 -90 49 -67 39 -233 126 -237 124 -2 -1 -30 -8 -63
-16z m108 -24 c23 -12 99 -53 168 -92 l126 -71 18 -56 c25 -80 25 -80 15 -80
-6 0 -10 1 -10 3 0 1 -7 20 -15 42 -9 27 -14 33 -15 18 0 -12 -8 -27 -17 -32
-10 -6 -13 -11 -6 -11 6 0 15 5 19 11 4 8 12 2 21 -15 12 -23 12 -30 1 -44
-23 -30 -38 -61 -38 -82 0 -11 -3 -20 -7 -20 -5 0 -16 -21 -27 -48 -10 -26
-24 -61 -32 -79 -8 -17 -14 -37 -14 -45 0 -7 -7 -26 -15 -41 -8 -15 -19 -49
-24 -75 -5 -26 -14 -65 -20 -87 -16 -65 -35 -299 -28 -354 7 -61 -8 -107 -30
-89 -15 12 -28 4 -28 -18 0 -7 -4 -13 -10 -11 -9 2 -12 28 -5 52 1 6 2 28 1
49 l-1 40 -31 -30 c-28 -25 -101 -166 -190 -362 -20 -44 -29 -53 -57 -58 -18
-4 -35 -10 -37 -14 -6 -9 -76 -1 -85 9 -3 3 -29 19 -59 34 -70 37 -267 169
-306 205 -22 20 -37 50 -53 103 -26 87 -27 113 -8 188 22 87 60 357 75 540 8
93 12 104 42 143 44 56 44 56 114 112 33 27 80 66 105 88 172 147 163 142 350
182 36 7 66 14 68 15 1 0 22 -8 45 -20z"/>
<path d="M1355 1670 c33 -17 79 -35 103 -42 33 -8 42 -15 39 -27 -2 -9 -6 -22
-8 -30 -2 -7 1 -15 8 -18 7 -3 10 3 6 15 -2 11 0 23 6 27 9 5 10 -14 7 -67 -3
-41 -1 -80 4 -88 12 -19 18 14 22 112 l3 76 -44 7 c-25 4 -72 17 -106 30 -98
36 -103 37 -40 5z m172 -212 c-3 -7 -5 -2 -5 12 0 14 2 19 5 13 2 -7 2 -19 0
-25z"/>
<path d="M1560 1598 c0 -12 1 -19 3 -17 1 2 9 12 16 22 12 14 11 17 -3 17 -10
0 -16 -8 -16 -22z"/>
<path d="M1451 1554 c17 -31 26 -39 35 -30 8 7 9 12 1 15 -6 2 -21 16 -34 30
l-24 26 22 -41z"/>
<path d="M1405 1500 c-16 -16 -26 -32 -23 -35 3 -3 18 9 33 27 24 28 27 29 23
11 -4 -13 -2 -26 3 -29 5 -3 9 9 9 25 0 39 -9 39 -45 1z"/>
<path d="M1456 1465 c-3 -8 -1 -15 4 -15 6 0 10 7 10 15 0 8 -2 15 -4 15 -2 0
-6 -7 -10 -15z"/>
<path d="M1284 1392 c-41 -50 -72 -98 -56 -88 6 4 19 20 27 37 9 17 24 29 35
29 14 0 18 5 13 18 -6 15 -3 14 17 -3 l23 -20 -13 24 c-10 19 -10 25 1 32 11
7 11 9 -1 9 -8 0 -29 -17 -46 -38z"/>
<path d="M1340 1401 c0 -6 4 -13 10 -16 6 -3 7 1 4 9 -7 18 -14 21 -14 7z"/>
<path d="M1271 1334 c0 -11 3 -14 6 -6 3 7 2 16 -1 19 -3 4 -6 -2 -5 -13z"/>
<path d="M1054 1312 c-15 -20 -18 -34 -13 -52 7 -24 7 -24 8 -2 1 12 1 25 0
28 0 3 9 14 20 23 21 19 27 31 14 30 -5 0 -17 -12 -29 -27z"/>
<path d="M992 1242 c-7 -22 -7 -29 3 -29 7 0 11 7 7 15 -3 8 3 21 13 28 16 12
16 14 3 14 -9 0 -20 -13 -26 -28z"/>
<path d="M1161 1228 c-32 -43 -38 -58 -22 -58 5 0 13 13 19 28 5 16 17 36 27
46 10 9 15 19 12 22 -2 3 -19 -14 -36 -38z"/>
<path d="M1168 1180 c-5 -35 7 -41 16 -7 8 30 7 37 -3 37 -5 0 -11 -13 -13
-30z"/>
<path d="M1137 1133 c-10 -9 -9 -41 2 -47 5 -3 11 8 13 24 4 29 -1 37 -15 23z"/>
<path d="M1002 1100 c0 -19 2 -27 5 -17 2 9 2 25 0 35 -3 9 -5 1 -5 -18z"/>
<path d="M1390 1108 c0 -19 2 -20 10 -8 13 19 13 30 0 30 -5 0 -10 -10 -10
-22z"/>
<path d="M1170 1077 c0 -15 -4 -27 -10 -27 -5 0 -10 -12 -10 -26 0 -14 4 -23
9 -20 11 7 25 85 17 93 -3 4 -6 -6 -6 -20z"/>
<path d="M1362 1070 c0 -14 2 -19 5 -12 2 6 2 18 0 25 -3 6 -5 1 -5 -13z"/>
<path d="M1393 1010 c0 -25 2 -35 4 -22 2 12 2 32 0 45 -2 12 -4 2 -4 -23z"/>
<path d="M1160 919 c0 -30 5 -61 10 -69 8 -10 9 5 4 50 -8 82 -14 90 -14 19z"/>
<path d="M1193 930 c0 -25 2 -35 4 -22 2 12 2 32 0 45 -2 12 -4 2 -4 -23z"/>
<path d="M1383 870 c0 -36 2 -50 4 -32 2 17 2 47 0 65 -2 17 -4 3 -4 -33z"/>
<path d="M1361 904 c0 -11 3 -14 6 -6 3 7 2 16 -1 19 -3 4 -6 -2 -5 -13z"/>
<path d="M1281 774 c0 -11 3 -14 6 -6 3 7 2 16 -1 19 -3 4 -6 -2 -5 -13z"/>
<path d="M1191 750 c0 -8 4 -24 9 -35 5 -13 9 -14 9 -5 0 8 -4 24 -9 35 -5 13
-9 14 -9 5z"/>
<path d="M1360 760 c-1 -3 -4 -18 -6 -35 -2 -24 -1 -27 7 -12 6 10 8 25 6 35
-3 9 -6 15 -7 12z"/>
<path d="M1150 723 c0 -16 -3 -39 -5 -53 -3 -16 0 -12 9 10 17 42 20 70 6 70
-5 0 -10 -12 -10 -27z"/>
<path d="M1230 714 c0 -8 5 -12 10 -9 6 4 8 11 5 16 -9 14 -15 11 -15 -7z"/>
<path d="M1370 700 c0 -5 5 -10 10 -10 6 0 10 5 10 10 0 6 -4 10 -10 10 -5 0
-10 -4 -10 -10z"/>
<path d="M1042 670 c0 -14 2 -19 5 -12 2 6 2 18 0 25 -3 6 -5 1 -5 -13z"/>
<path d="M1206 673 c-4 -9 -3 -20 2 -25 4 -4 9 4 10 17 2 29 -3 32 -12 8z"/>
<path d="M953 570 c0 -47 2 -66 4 -42 2 23 2 61 0 85 -2 23 -4 4 -4 -43z"/>
<path d="M1053 600 c0 -25 2 -35 4 -22 2 12 2 32 0 45 -2 12 -4 2 -4 -23z"/>
<path d="M1107 583 c-4 -3 -7 -11 -7 -17 0 -6 5 -5 12 2 6 6 9 14 7 17 -3 3
-9 2 -12 -2z"/>
<path d="M1140 563 c0 -5 5 -15 10 -23 8 -12 10 -11 10 8 0 12 -4 22 -10 22
-5 0 -10 -3 -10 -7z"/>
<path d="M1070 505 c0 -8 5 -15 10 -15 6 0 10 7 10 15 0 8 -4 15 -10 15 -5 0
-10 -7 -10 -15z"/>
<path d="M1123 475 c-3 -9 -3 -18 -1 -21 3 -3 8 4 11 16 6 23 -1 27 -10 5z"/>
<path d="M930 380 c0 -5 5 -10 11 -10 5 0 7 5 4 10 -3 6 -8 10 -11 10 -2 0 -4
-4 -4 -10z"/>
<path d="M1040 381 c0 -5 6 -12 13 -14 10 -4 10 -6 0 -6 -18 -1 -16 -21 1 -21
13 0 26 20 26 41 0 5 -9 9 -20 9 -11 0 -20 -4 -20 -9z"/>
<path d="M924 349 c-5 -9 -2 -10 9 -6 9 3 18 0 20 -9 4 -10 5 -9 3 2 -1 21
-22 29 -32 13z"/>
</g>
</svg>
