<?xml version="1.0" standalone="no"?>
<!DOCTYPE svg PUBLIC "-//W3C//DTD SVG 20010904//EN"
 "http://www.w3.org/TR/2001/REC-SVG-20010904/DTD/svg10.dtd">
<svg version="1.0" xmlns="http://www.w3.org/2000/svg"
 width="840.000000pt" height="859.000000pt" viewBox="0 0 840.000000 859.000000"
 preserveAspectRatio="xMidYMid meet">

<g transform="translate(0.000000,859.000000) scale(0.100000,-0.100000)"
fill="#000000" stroke="none">
<path d="M3867 8498 c19 -123 -4 -565 -37 -718 -5 -25 -14 -79 -20 -120 -18
-132 -36 -235 -70 -395 -6 -27 -17 -79 -25 -115 -7 -36 -23 -108 -35 -160 -12
-52 -26 -115 -31 -139 -5 -25 -13 -59 -19 -75 -5 -17 -21 -71 -36 -121 -15
-49 -30 -94 -35 -99 -5 -6 -9 -16 -9 -24 0 -14 -6 -28 -54 -134 -14 -31 -26
-61 -26 -67 0 -5 -3 -11 -7 -13 -5 -1 -19 -25 -32 -53 -34 -69 -134 -239 -143
-243 -5 -2 -8 -8 -8 -13 0 -5 -16 -32 -35 -59 -19 -28 -51 -74 -72 -102 -42
-61 -243 -323 -270 -353 -10 -11 -38 -45 -63 -75 -25 -30 -49 -60 -55 -66 -5
-6 -26 -30 -45 -53 -19 -24 -40 -48 -45 -54 -6 -7 -46 -55 -90 -107 -44 -52
-82 -97 -85 -100 -3 -3 -33 -39 -67 -80 -33 -41 -72 -88 -87 -103 -14 -15 -26
-32 -26 -37 0 -5 -6 -13 -13 -17 -6 -4 -25 -26 -42 -48 -16 -22 -34 -45 -40
-52 -23 -28 -35 -43 -116 -158 -83 -118 -114 -163 -134 -197 -117 -196 -165
-287 -215 -403 -38 -88 -49 -117 -55 -146 -4 -19 -11 -36 -14 -39 -4 -3 -13
-27 -20 -55 -42 -170 -54 -231 -62 -320 -5 -55 -14 -129 -20 -165 -6 -36 -9
-90 -6 -120 3 -30 10 -147 17 -260 6 -113 15 -218 20 -235 5 -16 12 -61 15
-100 4 -38 13 -95 20 -125 8 -30 17 -81 20 -113 4 -31 11 -59 15 -62 5 -3 11
-32 15 -65 4 -33 11 -60 15 -60 5 0 11 -19 15 -42 4 -24 11 -47 15 -53 4 -5
13 -36 20 -68 7 -31 17 -57 22 -57 4 0 8 -9 8 -20 0 -11 10 -42 22 -70 l22
-50 55 -1 c47 -1 51 -3 26 -9 l-30 -8 33 -1 c17 0 32 3 32 7 0 4 14 9 31 10
21 2 28 -1 23 -9 -5 -8 -3 -9 5 -5 13 9 8 74 -9 111 -9 19 -14 57 -41 275 -6
47 -9 146 -6 220 4 133 32 383 44 403 3 5 12 37 19 71 26 125 88 323 121 386
7 14 13 30 13 37 0 6 7 24 15 40 8 15 30 64 50 108 20 44 42 91 49 105 93 175
101 189 179 317 65 106 65 106 126 197 81 122 165 240 229 321 4 6 28 37 52
70 24 33 49 65 54 72 6 7 16 18 21 25 6 7 36 46 68 86 31 39 83 105 114 144
32 40 61 75 64 78 3 3 34 41 69 85 34 44 66 82 71 83 5 2 9 10 9 17 0 7 4 15
9 17 5 2 37 39 72 83 34 44 68 85 73 92 16 17 25 31 75 98 25 33 47 62 50 65
3 3 20 25 36 50 17 25 34 50 38 55 59 73 185 303 247 451 22 54 45 108 50 119
9 19 31 84 64 193 40 128 75 328 89 501 l12 154 60 -59 c85 -85 179 -193 268
-309 96 -124 86 -112 122 -165 16 -25 32 -47 35 -50 3 -3 16 -25 29 -50 14
-25 27 -47 30 -50 3 -3 20 -32 36 -65 17 -33 33 -61 38 -63 4 -2 7 -8 7 -13 0
-6 16 -44 35 -85 19 -41 35 -79 35 -85 0 -6 6 -25 14 -42 8 -18 24 -66 34
-107 18 -68 29 -134 62 -360 24 -173 75 -428 124 -625 41 -166 43 -173 102
-370 19 -66 39 -130 44 -142 5 -12 21 -57 35 -100 15 -43 32 -91 39 -108 7
-16 24 -57 37 -90 13 -33 27 -62 30 -65 3 -3 10 -16 14 -29 4 -13 19 -45 34
-70 14 -25 32 -58 39 -72 28 -55 129 -175 171 -203 102 -68 244 -33 329 79 17
25 32 48 32 52 0 4 7 21 15 37 22 41 55 177 55 224 0 50 10 102 20 102 4 0 11
-21 15 -47 4 -27 11 -55 15 -63 4 -8 13 -55 19 -104 18 -146 -3 -322 -74 -631
-55 -241 -81 -381 -96 -510 -12 -102 -5 -440 9 -458 5 -7 13 -33 16 -60 4 -26
14 -59 22 -75 7 -15 14 -32 14 -39 0 -42 124 -203 156 -203 7 0 14 -4 16 -9 7
-20 124 -36 235 -33 l113 3 6 27 c4 15 10 32 14 37 4 6 11 26 15 45 4 19 11
37 14 40 7 5 32 90 52 180 5 25 14 52 19 61 4 9 12 38 15 65 4 27 11 54 15 59
4 6 11 35 15 65 3 30 11 71 16 90 20 69 67 403 75 530 l5 75 -27 -50 c-15 -27
-31 -52 -35 -53 -5 -2 -9 -8 -9 -14 0 -11 -62 -91 -97 -125 -42 -40 -93 -58
-170 -58 -40 0 -76 5 -82 10 -6 7 -3 24 9 50 11 22 19 46 20 53 0 7 4 20 9 30
5 9 19 51 31 92 12 41 28 96 35 121 8 25 17 65 21 90 4 24 10 46 13 49 7 5 33
143 57 300 46 296 72 734 55 915 -16 171 -49 342 -85 448 -9 26 -16 57 -16 67
0 11 -4 20 -9 20 -5 0 -11 15 -15 33 -9 45 -69 193 -127 313 -27 56 -49 107
-49 113 0 6 -4 11 -9 11 -5 0 -15 16 -21 35 -6 19 -16 35 -21 35 -5 0 -9 5 -9
10 0 9 -75 141 -133 234 -45 74 -203 299 -232 333 -5 6 -21 26 -35 44 -40 54
-83 97 -71 73 11 -23 37 -154 52 -259 5 -38 14 -90 19 -115 16 -75 35 -356 35
-520 0 -149 -16 -323 -35 -385 -5 -16 -19 -64 -31 -105 -43 -144 -176 -351
-193 -298 -3 7 -10 83 -16 168 -7 85 -14 159 -17 163 -2 4 -11 56 -18 115 -18
142 -44 313 -51 335 -3 10 -12 55 -20 100 -16 98 -37 212 -53 287 -20 92 -52
233 -62 270 -9 34 -56 226 -84 340 -22 90 -76 284 -85 300 -4 9 -11 31 -14 50
-4 19 -11 44 -16 55 -4 11 -20 56 -35 100 -15 44 -31 89 -35 100 -5 11 -21 49
-35 85 -81 199 -277 546 -402 711 -29 38 -53 74 -53 79 0 6 -4 10 -8 10 -5 0
-24 21 -42 48 -68 96 -229 280 -346 396 -166 166 -373 346 -396 346 -5 0 -5
-22 -1 -52z"/>
<path d="M1888 1703 c6 -2 10 -8 8 -12 -3 -4 10 -7 27 -8 18 -1 23 1 12 4 -11
3 -24 9 -29 14 -6 5 -15 9 -20 8 -6 0 -5 -3 2 -6z"/>
<path d="M2003 1698 c1 -8 -6 -12 -19 -10 -12 2 -21 -3 -21 -11 0 -7 11 -14
24 -15 48 -4 54 -6 49 -18 -3 -7 1 -15 8 -17 9 -4 13 4 12 26 -1 17 -8 33 -15
35 -8 3 -11 0 -7 -7 5 -7 -1 -11 -16 -10 -13 0 -17 3 -10 6 14 6 16 33 2 33
-5 0 -9 -6 -7 -12z"/>
<path d="M6483 1695 c0 -8 4 -12 9 -9 5 3 6 10 3 15 -9 13 -12 11 -12 -6z"/>
<path d="M1910 1660 c0 -5 9 -8 20 -7 21 1 18 10 -5 13 -8 1 -15 -2 -15 -6z"/>
<path d="M1945 1639 c-25 -5 -20 -7 24 -8 30 0 52 1 49 4 -9 10 -42 12 -73 4z"/>
<path d="M6350 1630 c-9 -6 -10 -10 -3 -10 6 0 15 5 18 10 8 12 4 12 -15 0z"/>
<path d="M1932 1589 c7 -5 20 -6 29 -4 9 3 22 -1 29 -10 7 -8 16 -15 21 -15 5
0 1 8 -9 18 -10 10 -33 19 -51 19 -20 0 -27 -3 -19 -8z"/>
<path d="M2005 1590 c3 -5 8 -10 11 -10 2 0 4 5 4 10 0 6 -5 10 -11 10 -5 0
-7 -4 -4 -10z"/>
<path d="M2030 1596 c0 -2 7 -9 15 -16 13 -11 14 -10 9 4 -5 14 -24 23 -24 12z"/>
<path d="M1958 1563 c7 -3 16 -2 19 1 4 3 -2 6 -13 5 -11 0 -14 -3 -6 -6z"/>
</g>
</svg>
