<?xml version="1.0" standalone="no"?>
<!DOCTYPE svg PUBLIC "-//W3C//DTD SVG 20010904//EN"
 "http://www.w3.org/TR/2001/REC-SVG-20010904/DTD/svg10.dtd">
<svg version="1.0" xmlns="http://www.w3.org/2000/svg"
 width="360.000000pt" height="360.000000pt" viewBox="0 0 360.000000 360.000000"
 preserveAspectRatio="xMidYMid meet">

<g transform="translate(0.000000,360.000000) scale(0.100000,-0.100000)"
fill="#000000" stroke="none">
<path d="M1625 2955 c-259 -41 -468 -147 -650 -330 -265 -264 -386 -628 -331
-995 38 -252 151 -475 331 -655 459 -458 1192 -459 1650 0 402 401 457 1007
136 1490 -59 90 -206 237 -296 296 -257 171 -555 240 -840 194z m435 -200
c339 -91 603 -356 697 -700 24 -88 27 -118 27 -250 0 -120 -5 -168 -22 -238
-75 -302 -267 -537 -546 -667 -127 -60 -115 -77 -118 165 -4 232 -9 255 -78
320 l-31 30 79 11 c208 30 327 108 383 252 19 48 23 77 23 187 1 145 -12 202
-64 274 -29 39 -29 43 -24 133 3 73 1 104 -13 143 -17 48 -20 50 -59 53 -52 4
-134 -25 -209 -73 l-59 -37 -67 11 c-87 14 -270 14 -361 0 -70 -11 -70 -11
-114 20 -72 53 -151 84 -213 85 l-55 1 -17 -45 c-19 -47 -24 -178 -10 -215 6
-14 0 -30 -20 -58 -47 -65 -71 -142 -76 -247 -11 -206 56 -338 207 -415 55
-28 196 -65 248 -65 39 0 40 -5 3 -36 -16 -13 -38 -44 -49 -68 -18 -37 -26
-44 -59 -49 -128 -22 -190 8 -274 129 -15 23 -44 49 -64 58 -37 18 -106 18
-112 1 -2 -6 19 -28 47 -49 38 -29 60 -58 91 -117 69 -132 135 -172 275 -168
l75 2 2 -141 c1 -78 -1 -142 -5 -142 -3 0 -42 15 -85 33 -398 168 -646 585
-603 1011 36 350 229 629 545 789 85 43 217 85 305 97 109 15 292 4 400 -25z"/>
</g>
</svg>
