<?xml version="1.0" standalone="no"?>
<!DOCTYPE svg PUBLIC "-//W3C//DTD SVG 20010904//EN"
 "http://www.w3.org/TR/2001/REC-SVG-20010904/DTD/svg10.dtd">
<svg version="1.0" xmlns="http://www.w3.org/2000/svg"
 width="900.000000pt" height="768.000000pt" viewBox="0 0 900.000000 768.000000"
 preserveAspectRatio="xMidYMid meet">

<g transform="translate(0.000000,768.000000) scale(0.100000,-0.100000)"
fill="#000000" stroke="none">
<path d="M2690 7349 c-519 -59 -1004 -334 -1319 -748 -207 -271 -341 -608
-381 -956 -14 -123 -14 -3487 0 -3610 56 -485 285 -924 650 -1243 221 -193
516 -347 800 -416 241 -58 184 -57 2116 -53 1759 3 1770 3 1879 24 830 162
1438 791 1567 1623 10 68 13 447 13 1875 0 1688 -1 1796 -18 1899 -137 813
-743 1429 -1562 1589 -110 21 -116 21 -1890 23 -979 1 -1814 -2 -1855 -7z
m3675 -656 c257 -60 454 -169 636 -352 194 -194 309 -412 361 -689 19 -98 19
-3526 0 -3624 -52 -277 -167 -495 -361 -689 -154 -154 -306 -249 -505 -314
-195 -63 -87 -60 -1996 -60 -1372 0 -1759 3 -1812 13 -277 52 -495 167 -689
361 -194 194 -309 412 -361 689 -19 98 -19 3526 0 3624 50 263 162 486 338
668 99 103 159 151 273 219 142 86 322 149 486 170 40 5 818 8 1805 7 1729 -2
1735 -2 1825 -23z"/>
<path d="M6164 5906 c-142 -46 -233 -183 -222 -331 7 -81 36 -143 93 -200 68
-69 122 -90 225 -90 103 0 157 21 225 90 69 68 90 122 90 225 0 66 -5 96 -22
132 -27 60 -95 127 -157 158 -60 28 -171 36 -232 16z"/>
<path d="M4395 5448 c-330 -22 -656 -156 -921 -378 -255 -214 -451 -542 -523
-872 -96 -444 -6 -888 257 -1268 83 -119 258 -294 382 -382 417 -296 956 -373
1443 -207 568 193 982 696 1067 1299 17 122 13 351 -9 482 -88 510 -412 943
-876 1168 -261 127 -527 178 -820 158z m376 -672 c115 -34 186 -66 270 -122
192 -127 327 -312 394 -539 36 -121 45 -313 21 -434 -39 -190 -123 -355 -249
-488 -283 -298 -734 -381 -1105 -203 -108 52 -161 89 -251 174 -256 247 -354
601 -260 945 88 323 356 590 676 670 117 30 117 30 273 26 120 -2 160 -7 231
-29z"/>
</g>
</svg>
