<?xml version="1.0" standalone="no"?>
<!DOCTYPE svg PUBLIC "-//W3C//DTD SVG 20010904//EN"
 "http://www.w3.org/TR/2001/REC-SVG-20010904/DTD/svg10.dtd">
<svg version="1.0" xmlns="http://www.w3.org/2000/svg"
 width="900.000000pt" height="618.000000pt" viewBox="0 0 900.000000 618.000000"
 preserveAspectRatio="xMidYMid meet">

<g transform="translate(0.000000,618.000000) scale(0.100000,-0.100000)"
fill="#000000" stroke="none">
<path d="M1950 5874 c-14 -2 -59 -9 -100 -15 -428 -60 -840 -300 -1093 -638
-58 -77 -150 -246 -186 -341 -59 -152 -91 -337 -91 -518 0 -457 208 -887 593
-1222 l27 -24 70 70 c38 38 70 74 70 80 0 7 -12 20 -28 30 -101 66 -251 232
-335 371 -234 389 -259 858 -67 1248 188 383 534 638 1000 737 93 20 133 23
345 23 296 -1 278 3 980 -170 297 -74 590 -145 650 -159 105 -24 426 -101 785
-187 91 -22 264 -57 385 -79 121 -21 265 -49 320 -61 84 -19 131 -22 290 -23
222 -1 488 16 595 37 153 31 324 47 493 47 152 0 221 -6 394 -35 l42 -7 3 97
c3 90 1 98 -17 106 -86 35 -483 49 -722 25 -88 -9 -194 -23 -235 -30 -106 -21
-372 -41 -528 -40 -142 1 -233 11 -440 49 -69 13 -162 29 -208 35 -80 11 -158
29 -977 225 -220 52 -470 112 -555 131 -85 20 -270 65 -410 101 -491 126 -600
144 -858 142 -92 -1 -178 -3 -192 -5z"/>
<path d="M6385 4831 l-60 -6 -3 -560 c-3 -653 -5 -637 83 -722 44 -42 67 -56
125 -74 104 -31 221 -24 306 19 70 35 126 93 160 166 l24 51 0 568 0 567 -110
0 -110 0 0 -553 0 -553 -27 -26 c-52 -49 -118 -61 -179 -32 -19 9 -39 25 -45
36 -6 12 -11 218 -12 571 l-2 552 -45 1 c-25 1 -72 -2 -105 -5z"/>
<path d="M7177 4834 c-4 -4 -7 -51 -7 -104 l0 -97 155 -18 155 -19 0 -592 0
-593 33 -5 c17 -3 65 -8 105 -11 l72 -6 0 585 0 586 23 0 c12 0 67 -7 121 -15
55 -8 101 -15 103 -15 1 0 3 45 3 99 0 86 -2 100 -17 105 -37 11 -394 65 -528
81 -77 8 -156 18 -175 21 -20 3 -39 2 -43 -2z"/>
<path d="M5680 4787 c-123 -28 -248 -133 -290 -243 -20 -56 -21 -68 -18 -523
3 -456 3 -467 25 -506 48 -90 129 -134 258 -143 152 -9 276 50 360 172 l40 58
3 484 c2 329 -1 498 -8 526 -7 26 -28 57 -59 88 -77 77 -201 111 -311 87z
m137 -231 l28 -24 3 -411 c3 -393 2 -413 -17 -456 -16 -36 -29 -50 -63 -65
-64 -29 -113 -26 -149 9 l-29 29 0 412 c0 440 0 439 52 487 52 49 130 57 175
19z"/>
<path d="M4975 4666 l-80 -11 -2 -278 c-1 -154 -3 -281 -6 -283 -2 -2 -57 -11
-123 -19 -65 -8 -129 -18 -141 -20 l-23 -5 0 279 c0 159 -4 282 -9 285 -8 5
-128 -7 -188 -20 l-23 -4 0 -696 0 -696 73 7 c39 3 88 10 107 14 l35 7 0 309
0 310 140 18 c77 9 146 15 153 12 9 -3 12 -75 12 -310 0 -287 1 -306 18 -301
9 2 44 7 77 11 33 3 72 8 88 11 l27 6 0 694 0 694 -27 -1 c-16 -1 -64 -7 -108
-13z"/>
<path d="M4080 4554 c-52 -7 -196 -24 -320 -38 -124 -15 -240 -29 -257 -32
l-33 -5 0 -99 c0 -54 3 -101 8 -103 4 -3 54 1 112 9 58 7 115 13 128 14 l22 0
0 -594 c0 -327 3 -597 8 -599 7 -4 115 7 180 18 l32 6 0 598 0 599 58 6 c31 4
91 12 133 17 l76 11 6 83 c3 45 3 92 0 104 -6 24 -14 25 -153 5z"/>
<path d="M3163 4448 l-93 -10 0 -704 0 -704 23 1 c12 0 60 6 107 12 l85 12 0
700 c0 615 -2 700 -15 701 -8 1 -57 -3 -107 -8z"/>
<path d="M1590 4436 c0 -2 9 -47 20 -100 23 -111 104 -552 185 -1000 30 -171
57 -312 60 -314 4 -5 236 -24 240 -20 2 2 15 73 29 158 28 162 98 502 103 497
4 -4 107 -456 130 -572 l18 -90 111 -3 111 -3 31 153 c18 84 48 241 68 348 32
175 153 816 170 897 l6 32 -78 -5 c-44 -3 -97 -7 -119 -10 l-40 -5 -58 -332
c-32 -183 -67 -387 -79 -454 -12 -68 -24 -123 -28 -123 -12 0 -131 647 -154
841 l-7 56 -77 6 c-42 3 -78 4 -80 3 -1 -2 -20 -110 -42 -240 -58 -346 -117
-643 -125 -634 -4 4 -83 416 -131 683 -19 105 -36 195 -38 201 -6 15 -226 45
-226 30z"/>
<path d="M6482 3104 l3 -109 130 0 130 0 2 -580 c1 -319 3 -590 3 -603 0 -22
1 -23 108 -20 l107 3 3 598 2 597 130 0 130 0 0 99 c0 55 -4 102 -8 105 -5 3
-173 8 -375 12 l-368 7 3 -109z"/>
<path d="M6150 3181 l-45 -6 -3 -708 -2 -708 97 2 c54 1 104 4 111 6 9 4 12
156 12 714 l0 709 -62 -2 c-35 0 -83 -4 -108 -7z"/>
<path d="M7322 3164 c3 -11 76 -208 164 -439 l158 -420 4 -273 4 -273 24 -9
c13 -5 60 -13 103 -16 l79 -7 4 269 3 269 64 155 c107 261 252 632 249 635 -4
4 -221 45 -224 42 -4 -3 -83 -220 -139 -380 -27 -75 -52 -134 -56 -130 -9 9
-41 96 -140 370 -47 130 -78 204 -88 207 -9 3 -61 8 -115 12 -94 6 -99 6 -94
-12z"/>
<path d="M5761 3139 c-35 -4 -67 -13 -71 -19 -4 -6 -46 -212 -94 -458 -90
-459 -96 -484 -102 -467 -2 6 -40 203 -84 439 -44 237 -83 432 -85 434 -5 6
-215 -14 -221 -21 -2 -2 30 -172 71 -378 41 -206 91 -455 110 -554 19 -99 45
-235 58 -303 13 -67 27 -125 31 -129 8 -9 238 16 250 27 4 4 15 43 23 87 30
164 166 858 213 1091 28 134 50 247 50 252 0 12 -57 11 -149 -1z"/>
<path d="M4785 3001 l-90 -16 -3 -704 -2 -703 32 5 c18 3 68 11 111 18 l77 12
0 703 c0 664 -1 704 -17 703 -10 -1 -58 -9 -108 -18z"/>
<path d="M4335 2925 c-88 -12 -251 -33 -362 -46 l-203 -23 0 -108 c0 -107 0
-108 23 -104 12 3 58 10 102 16 44 6 95 13 112 16 l33 5 2 -598 3 -597 50 3
c28 1 75 5 105 9 l55 7 3 601 2 601 93 12 c50 6 113 14 140 18 l47 6 0 103 c0
102 -1 104 -22 103 -13 -1 -95 -12 -183 -24z"/>
<path d="M430 2921 c-89 -27 -152 -84 -170 -152 -8 -27 -10 -193 -8 -502 l3
-462 28 -56 c60 -124 204 -208 360 -212 93 -2 151 18 206 72 71 70 81 99 81
234 l0 114 -67 6 c-38 4 -82 7 -99 7 l-32 0 -4 -81 c-3 -77 -5 -82 -36 -110
-62 -55 -176 -30 -208 46 -11 28 -14 111 -14 449 l0 416 25 16 c34 22 112 15
154 -15 47 -34 63 -74 69 -173 l5 -88 41 0 c22 0 71 -3 109 -7 l67 -6 0 54
c-1 231 -93 376 -278 438 -63 22 -181 27 -232 12z"/>
<path d="M1154 2787 c4 -18 9 -331 13 -695 4 -474 9 -665 17 -667 6 -2 53 -6
104 -9 l92 -5 0 286 0 285 23 -6 c12 -3 36 -6 54 -6 l32 0 51 -162 c65 -207
140 -427 149 -432 3 -2 52 -7 109 -11 99 -6 102 -6 102 14 0 11 -36 132 -80
268 -44 137 -88 275 -97 307 l-17 60 34 25 c56 42 81 73 109 131 24 50 26 66
26 175 0 104 -3 127 -23 170 -52 114 -114 171 -236 220 -74 29 -275 69 -395
78 l-73 6 6 -32z m383 -232 c99 -42 146 -135 122 -243 -21 -98 -91 -141 -213
-127 l-66 7 0 195 0 196 60 -6 c33 -4 77 -14 97 -22z"/>
<path d="M3330 2804 c-8 -1 -36 -5 -61 -9 l-47 -6 -12 -62 c-6 -34 -61 -280
-122 -547 -115 -506 -168 -753 -168 -782 0 -20 34 -23 151 -12 l66 7 33 154
c18 84 36 156 40 158 15 9 265 34 271 27 3 -4 21 -68 39 -142 18 -74 36 -139
41 -144 8 -9 195 7 206 18 7 7 -33 189 -149 671 -38 160 -87 369 -109 465 -22
96 -42 183 -45 193 -4 14 -16 17 -62 16 -31 -1 -64 -3 -72 -5z m74 -664 c31
-138 40 -197 32 -201 -13 -7 -186 -22 -186 -16 0 2 20 102 45 223 25 120 45
221 46 224 2 22 26 -64 63 -230z"/>
<path d="M2387 2743 l-287 -3 2 -693 3 -692 165 -3 c91 -2 247 0 348 3 l183 7
-3 106 -3 107 -120 -3 c-66 -1 -173 -5 -237 -8 l-118 -7 0 192 0 191 43 1 c23
1 105 4 182 8 l140 6 3 103 3 102 -186 0 -185 0 0 179 0 179 230 7 230 8 0
108 0 109 -52 -2 c-29 -2 -182 -4 -341 -5z"/>
<path d="M8295 2303 c11 -117 -1 -107 132 -126 167 -24 153 -29 153 56 0 39
-4 77 -8 83 -6 10 -226 54 -268 54 -13 0 -15 -10 -9 -67z"/>
<path d="M8116 1859 c-33 -439 -171 -725 -466 -964 -205 -165 -456 -273 -727
-311 -87 -12 -165 -15 -298 -11 -182 4 -379 33 -844 122 -69 13 -191 36 -271
50 -176 32 -400 85 -495 118 -38 14 -137 55 -220 92 -360 162 -583 213 -892
202 -187 -6 -286 -28 -470 -105 -159 -67 -232 -88 -364 -107 -62 -8 -173 -31
-248 -50 -75 -19 -187 -42 -249 -51 -103 -14 -130 -14 -295 0 -100 9 -191 18
-202 21 -11 2 -78 9 -150 15 -254 21 -392 54 -556 135 -121 60 -201 116 -299
212 l-85 83 -67 -67 c-38 -37 -68 -73 -68 -80 0 -17 149 -150 237 -211 155
-106 369 -198 553 -237 41 -8 158 -22 260 -30 102 -8 232 -21 290 -30 222 -34
393 -22 660 45 63 16 178 38 256 50 151 21 230 45 376 110 51 23 136 54 188
68 85 22 115 25 290 26 203 1 268 -7 436 -54 80 -23 215 -77 344 -138 255
-121 413 -158 1445 -338 264 -46 275 -48 480 -48 224 0 316 11 505 60 270 71
513 208 706 399 272 268 395 544 435 973 6 63 7 118 2 123 -4 4 -49 11 -99 14
l-91 7 -7 -93z"/>
</g>
</svg>
